<svg xmlns="http://www.w3.org/2000/svg" width="160" height="32" viewBox="0 0 160 32" fill="none">
    <path d="M39.3906 23V20.998L40.8848 20.6367V11.1641L39.3906 10.793V8.78125H40.8848H46.0508C47.3333 8.78125 48.4694 9.08073 49.459 9.67969C50.4486 10.2721 51.2233 11.0957 51.7832 12.1504C52.3431 13.1986 52.623 14.4095 52.623 15.7832V16.0078C52.623 17.3815 52.3431 18.5957 51.7832 19.6504C51.2233 20.6986 50.4486 21.5189 49.459 22.1113C48.4694 22.7038 47.3333 23 46.0508 23H39.3906ZM44.3125 20.4023H45.875C46.5977 20.4023 47.2031 20.2201 47.6914 19.8555C48.1797 19.4909 48.5475 18.9798 48.7949 18.3223C49.0488 17.6582 49.1758 16.8867 49.1758 16.0078V15.7734C49.1758 14.8945 49.0488 14.1263 48.7949 13.4688C48.5475 12.8112 48.1797 12.3001 47.6914 11.9355C47.2031 11.571 46.5977 11.3887 45.875 11.3887H44.3125V20.4023ZM53.8047 23V20.998L55.0449 20.6855V14.7578L53.5703 14.4453V12.4336H58.4727V20.6855L59.7031 20.998V23H53.8047ZM54.9473 10.4316V7.76562H58.4727V10.4316H54.9473ZM60.4941 27.0625V25.0508L61.8027 24.7383V14.7578L60.3184 14.4453V12.4336H65.0156L65.1328 13.625C65.4193 13.1823 65.7643 12.8405 66.168 12.5996C66.5716 12.3587 67.0664 12.2383 67.6523 12.2383C68.4857 12.2383 69.2018 12.4694 69.8008 12.9316C70.3997 13.3874 70.8587 14.0286 71.1777 14.8555C71.5033 15.6823 71.666 16.6426 71.666 17.7363V17.9414C71.666 18.9961 71.5033 19.9206 71.1777 20.7148C70.8587 21.5026 70.3965 22.1146 69.791 22.5508C69.1855 22.987 68.4564 23.2051 67.6035 23.2051C67.0827 23.2051 66.6237 23.1074 66.2266 22.9121C65.8359 22.7168 65.4974 22.4303 65.2109 22.0527V24.7383L66.4023 25.0508V27.0625H60.4941ZM66.5879 20.5977C67.2064 20.5977 67.6361 20.3665 67.877 19.9043C68.1178 19.4355 68.2383 18.7812 68.2383 17.9414V17.7363C68.2383 17.1569 68.1829 16.6523 68.0723 16.2227C67.9616 15.793 67.7826 15.4609 67.5352 15.2266C67.2943 14.9857 66.972 14.8652 66.5684 14.8652C66.2754 14.8652 66.0085 14.9303 65.7676 15.0605C65.5332 15.1908 65.3477 15.3861 65.2109 15.6465V19.9531C65.3477 20.168 65.5365 20.3307 65.7773 20.4414C66.0182 20.5456 66.2884 20.5977 66.5879 20.5977ZM72.3594 23V20.998L73.6094 20.6855V10.0898L72.125 9.77734V7.76562H77.0371V20.6855L78.2773 20.998V23H72.3594ZM83.9512 23.2051C82.8639 23.2051 81.9329 22.9805 81.1582 22.5312C80.39 22.0755 79.8008 21.444 79.3906 20.6367C78.987 19.8229 78.7852 18.8822 78.7852 17.8145V17.6191C78.7852 16.5645 78.987 15.6335 79.3906 14.8262C79.8008 14.0189 80.39 13.3874 81.1582 12.9316C81.9264 12.4694 82.8509 12.2383 83.9316 12.2383C85.0189 12.2383 85.9434 12.4661 86.7051 12.9219C87.4733 13.3776 88.0592 14.0091 88.4629 14.8164C88.873 15.6237 89.0781 16.5579 89.0781 17.6191V17.8145C89.0781 18.8757 88.873 19.8132 88.4629 20.627C88.0592 21.4342 87.4733 22.0658 86.7051 22.5215C85.9434 22.9772 85.0254 23.2051 83.9512 23.2051ZM83.9512 20.5977C84.3678 20.5977 84.6999 20.487 84.9473 20.2656C85.2012 20.0378 85.3835 19.7155 85.4941 19.2988C85.6113 18.8822 85.6699 18.3874 85.6699 17.8145V17.6191C85.6699 17.0658 85.6113 16.584 85.4941 16.1738C85.3835 15.7572 85.2012 15.4349 84.9473 15.207C84.6934 14.9727 84.3548 14.8555 83.9316 14.8555C83.515 14.8555 83.1797 14.9727 82.9258 15.207C82.6719 15.4349 82.4896 15.7572 82.3789 16.1738C82.2682 16.584 82.2129 17.0658 82.2129 17.6191V17.8145C82.2129 18.3939 82.2682 18.8919 82.3789 19.3086C82.4896 19.7253 82.6719 20.0443 82.9258 20.2656C83.1797 20.487 83.5215 20.5977 83.9512 20.5977ZM90.0352 23V20.998L91.2852 20.6855V14.7578L89.8008 14.4453V12.4336H94.498L94.6055 13.8398C94.9505 13.332 95.3704 12.9382 95.8652 12.6582C96.36 12.3783 96.9329 12.2383 97.584 12.2383C98.2415 12.2383 98.8047 12.3815 99.2734 12.668C99.7487 12.9479 100.107 13.3776 100.348 13.957C100.667 13.4102 101.077 12.987 101.578 12.6875C102.086 12.388 102.682 12.2383 103.365 12.2383C104.387 12.2383 105.191 12.5833 105.777 13.2734C106.363 13.9635 106.656 15.0247 106.656 16.457V20.6855L107.906 20.998V23H102.232V20.998L103.238 20.6855V16.457C103.238 15.8385 103.141 15.4186 102.945 15.1973C102.757 14.9759 102.48 14.8652 102.115 14.8652C101.816 14.8652 101.546 14.9238 101.305 15.041C101.064 15.1517 100.852 15.3145 100.67 15.5293V20.6855L101.549 20.998V23H96.3828V20.998L97.2617 20.6855V16.457C97.2617 15.8385 97.1673 15.4186 96.9785 15.1973C96.7897 14.9759 96.5065 14.8652 96.1289 14.8652C95.8359 14.8652 95.569 14.9238 95.3281 15.041C95.0872 15.1517 94.8757 15.3177 94.6934 15.5391V20.6855L95.6992 20.998V23H90.0352ZM112.184 23.2051C111.161 23.2051 110.328 22.9154 109.684 22.3359C109.039 21.7565 108.717 20.985 108.717 20.0215C108.717 19.0319 109.114 18.2214 109.908 17.5898C110.709 16.9583 111.917 16.6426 113.531 16.6426H114.635V16.0176C114.635 15.5944 114.514 15.2363 114.273 14.9434C114.033 14.6439 113.652 14.4941 113.131 14.4941C112.91 14.4941 112.701 14.5234 112.506 14.582C112.317 14.6341 112.145 14.7122 111.988 14.8164L111.754 16.1641H109.342L109.293 13.2246C109.892 12.9577 110.517 12.7266 111.168 12.5312C111.826 12.3359 112.558 12.2383 113.365 12.2383C114.804 12.2383 115.947 12.5703 116.793 13.2344C117.639 13.8919 118.062 14.8327 118.062 16.0566V19.9531C118.062 20.1029 118.062 20.2493 118.062 20.3926C118.069 20.5358 118.085 20.6725 118.111 20.8027L119.254 20.998V23H115.25C115.165 22.8828 115.074 22.7266 114.977 22.5312C114.879 22.3359 114.811 22.1406 114.771 21.9453C114.452 22.3424 114.094 22.6517 113.697 22.873C113.3 23.0944 112.796 23.2051 112.184 23.2051ZM113.238 20.7832C113.486 20.7832 113.733 20.7344 113.98 20.6367C114.234 20.5326 114.452 20.3796 114.635 20.1777V18.6543H113.57C113.108 18.6543 112.75 18.7552 112.496 18.957C112.249 19.1589 112.125 19.4258 112.125 19.7578C112.125 20.0768 112.229 20.3275 112.438 20.5098C112.646 20.6921 112.913 20.7832 113.238 20.7832ZM123.824 23.2246C122.717 23.2246 121.874 22.9316 121.295 22.3457C120.722 21.7533 120.436 20.819 120.436 19.543V14.7969H119.117V12.4336H120.436V9.82617H123.844V12.4336H125.572V14.7969H123.844V19.5332C123.844 19.8783 123.922 20.1191 124.078 20.2559C124.234 20.3926 124.449 20.4609 124.723 20.4609C124.84 20.4609 124.957 20.4544 125.074 20.4414C125.191 20.4284 125.309 20.4121 125.426 20.3926L125.66 22.9512C125.361 23.0358 125.058 23.1009 124.752 23.1465C124.452 23.1986 124.143 23.2246 123.824 23.2246ZM131.559 23.2051C130.523 23.2051 129.618 22.9837 128.844 22.541C128.076 22.0918 127.477 21.4798 127.047 20.7051C126.624 19.9303 126.412 19.0547 126.412 18.0781V17.7168C126.412 16.6426 126.601 15.6953 126.979 14.875C127.356 14.0482 127.91 13.4036 128.639 12.9414C129.368 12.4727 130.263 12.2383 131.324 12.2383C132.281 12.2383 133.089 12.4238 133.746 12.7949C134.41 13.1595 134.915 13.6999 135.26 14.416C135.605 15.1257 135.777 16.0013 135.777 17.043V18.8105H129.967L129.957 18.8789C130.009 19.2109 130.12 19.5072 130.289 19.7676C130.465 20.0215 130.706 20.2233 131.012 20.373C131.318 20.5228 131.695 20.5977 132.145 20.5977C132.587 20.5977 133.02 20.5488 133.443 20.4512C133.873 20.347 134.326 20.1842 134.801 19.9629L135.582 22.0332C135.107 22.3717 134.527 22.6517 133.844 22.873C133.16 23.0944 132.398 23.2051 131.559 23.2051ZM129.967 16.6914H132.652V16.4375C132.652 16.0599 132.613 15.7441 132.535 15.4902C132.464 15.2363 132.337 15.0443 132.154 14.9141C131.972 14.7839 131.721 14.7188 131.402 14.7188C131.057 14.7188 130.781 14.8034 130.572 14.9727C130.37 15.1354 130.221 15.3633 130.123 15.6562C130.032 15.9427 129.967 16.2715 129.928 16.6426L129.967 16.6914ZM137.604 23V20.168H141.012V23H137.604ZM145.875 23.2051C144.853 23.2051 144.02 22.9154 143.375 22.3359C142.73 21.7565 142.408 20.985 142.408 20.0215C142.408 19.0319 142.805 18.2214 143.6 17.5898C144.4 16.9583 145.608 16.6426 147.223 16.6426H148.326V16.0176C148.326 15.5944 148.206 15.2363 147.965 14.9434C147.724 14.6439 147.343 14.4941 146.822 14.4941C146.601 14.4941 146.393 14.5234 146.197 14.582C146.008 14.6341 145.836 14.7122 145.68 14.8164L145.445 16.1641H143.033L142.984 13.2246C143.583 12.9577 144.208 12.7266 144.859 12.5312C145.517 12.3359 146.249 12.2383 147.057 12.2383C148.495 12.2383 149.638 12.5703 150.484 13.2344C151.331 13.8919 151.754 14.8327 151.754 16.0566V19.9531C151.754 20.1029 151.754 20.2493 151.754 20.3926C151.76 20.5358 151.777 20.6725 151.803 20.8027L152.945 20.998V23H148.941C148.857 22.8828 148.766 22.7266 148.668 22.5312C148.57 22.3359 148.502 22.1406 148.463 21.9453C148.144 22.3424 147.786 22.6517 147.389 22.873C146.992 23.0944 146.487 23.2051 145.875 23.2051ZM146.93 20.7832C147.177 20.7832 147.424 20.7344 147.672 20.6367C147.926 20.5326 148.144 20.3796 148.326 20.1777V18.6543H147.262C146.799 18.6543 146.441 18.7552 146.188 18.957C145.94 19.1589 145.816 19.4258 145.816 19.7578C145.816 20.0768 145.921 20.3275 146.129 20.5098C146.337 20.6921 146.604 20.7832 146.93 20.7832ZM153.57 23V20.998L154.811 20.6855V14.7578L153.336 14.4453V12.4336H158.238V20.6855L159.469 20.998V23H153.57ZM154.713 10.4316V7.76562H158.238V10.4316H154.713Z" fill="#040402"/>
    <rect width="32" height="32" rx="8" fill="#040402"/>
    <path d="M13.3906 23V20.998L14.8848 20.6367V11.1641L13.3906 10.793V8.78125H14.8848H20.0508C21.3333 8.78125 22.4694 9.08073 23.459 9.67969C24.4486 10.2721 25.2233 11.0957 25.7832 12.1504C26.3431 13.1986 26.623 14.4095 26.623 15.7832V16.0078C26.623 17.3815 26.3431 18.5957 25.7832 19.6504C25.2233 20.6986 24.4486 21.5189 23.459 22.1113C22.4694 22.7038 21.3333 23 20.0508 23H13.3906ZM18.3125 20.4023H19.875C20.5977 20.4023 21.2031 20.2201 21.6914 19.8555C22.1797 19.4909 22.5475 18.9798 22.7949 18.3223C23.0488 17.6582 23.1758 16.8867 23.1758 16.0078V15.7734C23.1758 14.8945 23.0488 14.1263 22.7949 13.4688C22.5475 12.8112 22.1797 12.3001 21.6914 11.9355C21.2031 11.571 20.5977 11.3887 19.875 11.3887H18.3125V20.4023Z" fill="#FCF7EE"/>
    <path d="M19.6094 23V20.998L18.1152 20.6367V11.1641L19.6094 10.793V8.78125H18.1152H12.9492C11.6667 8.78125 10.5306 9.08073 9.54102 9.67969C8.55143 10.2721 7.77669 11.0957 7.2168 12.1504C6.6569 13.1986 6.37695 14.4095 6.37695 15.7832V16.0078C6.37695 17.3815 6.6569 18.5957 7.2168 19.6504C7.77669 20.6986 8.55143 21.5189 9.54102 22.1113C10.5306 22.7038 11.6667 23 12.9492 23H19.6094ZM14.6875 20.4023H13.125C12.4023 20.4023 11.7969 20.2201 11.3086 19.8555C10.8203 19.4909 10.4525 18.9798 10.2051 18.3223C9.95117 17.6582 9.82422 16.8867 9.82422 16.0078V15.7734C9.82422 14.8945 9.95117 14.1263 10.2051 13.4688C10.4525 12.8112 10.8203 12.3001 11.3086 11.9355C11.7969 11.571 12.4023 11.3887 13.125 11.3887H14.6875V20.4023Z" fill="#FCF7EE"/>
</svg>