<svg width="32" height="32" viewBox="0 0 32 32" fill="none" xmlns="http://www.w3.org/2000/svg">
<rect width="32" height="32" rx="8" fill="#FCF7EE"/>
<path d="M13.3906 23V20.998L14.8848 20.6367V11.1641L13.3906 10.793V8.78125H14.8848H20.0508C21.3333 8.78125 22.4694 9.08073 23.459 9.67969C24.4486 10.2721 25.2233 11.0957 25.7832 12.1504C26.3431 13.1986 26.623 14.4095 26.623 15.7832V16.0078C26.623 17.3815 26.3431 18.5957 25.7832 19.6504C25.2233 20.6986 24.4486 21.5189 23.459 22.1113C22.4694 22.7038 21.3333 23 20.0508 23H13.3906ZM18.3125 20.4023H19.875C20.5977 20.4023 21.2031 20.2201 21.6914 19.8555C22.1797 19.4909 22.5475 18.9798 22.7949 18.3223C23.0488 17.6582 23.1758 16.8867 23.1758 16.0078V15.7734C23.1758 14.8945 23.0488 14.1263 22.7949 13.4688C22.5475 12.8112 22.1797 12.3001 21.6914 11.9355C21.2031 11.571 20.5977 11.3887 19.875 11.3887H18.3125V20.4023Z" fill="#040402"/>
<path d="M19.6094 23V20.998L18.1152 20.6367V11.1641L19.6094 10.793V8.78125H18.1152H12.9492C11.6667 8.78125 10.5306 9.08073 9.54102 9.67969C8.55143 10.2721 7.77669 11.0957 7.2168 12.1504C6.6569 13.1986 6.37695 14.4095 6.37695 15.7832V16.0078C6.37695 17.3815 6.6569 18.5957 7.2168 19.6504C7.77669 20.6986 8.55143 21.5189 9.54102 22.1113C10.5306 22.7038 11.6667 23 12.9492 23H19.6094ZM14.6875 20.4023H13.125C12.4023 20.4023 11.7969 20.2201 11.3086 19.8555C10.8203 19.4909 10.4525 18.9798 10.2051 18.3223C9.95117 17.6582 9.82422 16.8867 9.82422 16.0078V15.7734C9.82422 14.8945 9.95117 14.1263 10.2051 13.4688C10.4525 12.8112 10.8203 12.3001 11.3086 11.9355C11.7969 11.571 12.4023 11.3887 13.125 11.3887H14.6875V20.4023Z" fill="#040402"/>
</svg>
